<?xml version="1.0" encoding="UTF-8"?>
<svg width="1161pt" version="1.1" xmlns="http://www.w3.org/2000/svg" height="197pt" viewBox="0 0 1161 197" xmlns:xlink="http://www.w3.org/1999/xlink" >
 <defs>
  <clipPath id="Clip0" >
   <path d="M0 0 L1159.39 0 L1159.39 196.059 L0 196.059 L0 0 Z" transform="translate(0.948242, 0.186523)" />
  </clipPath>
 </defs>
 <g id="Background" >
  <g id="Group1" clip-path="url(#Clip0)" >
   <path style="fill:#161413; fill-rule:evenodd;stroke:none;" d="M98.029 0 C152.161 0 196.059 43.8985 196.059 98.0293 C196.059 152.161 152.161 196.059 98.029 196.059 C43.898 196.059 0 152.161 0 98.0293 C0 43.8985 43.898 0 98.029 0 Z" transform="translate(508.558, 0.186523)" />
   <path style="fill:#e20010; fill-rule:evenodd;stroke:none;" d="M94.559 0 C146.774 0 189.119 42.3448 189.119 94.5586 C189.119 146.775 146.774 189.119 94.559 189.119 C42.345 189.119 0 146.775 0 94.5586 C0 42.3448 42.345 0 94.559 0 Z" transform="translate(512.028, 3.65723)" />
   <path style="fill:#161413; fill-rule:evenodd;stroke:none;" d="M75.941 0 C133.735 0.4707 151.882 27.1387 124.272 75.6475 C111.51 98.0671 106.563 112.299 119.168 122.476 C126.988 128.79 136.928 127.631 149.488 121.276 C135.804 144.09 113.91 150.261 92.631 133.884 C74.968 120.29 83.702 100.922 90.35 84.3521 C103.994 50.3447 116.452 14.7588 75.941 13.5078 C35.429 14.7588 47.888 50.3447 61.531 84.3521 C68.18 100.922 76.913 120.29 59.25 133.884 C37.972 150.261 16.078 144.09 2.395 121.276 C14.953 127.631 24.895 128.79 32.714 122.476 C45.32 112.299 40.371 98.0671 27.611 75.6475 C0 27.1387 18.147 0.4707 75.941 0 Z" transform="translate(531.115, 22.5449)" />
   <path style="fill:#ffffff; fill-rule:evenodd;stroke:none;" d="M105.831 81.4611 L104.895 83.3471 L104.014 85.1951 L103.189 87.0081 L102.422 88.7831 L101.716 90.5261 L101.073 92.2361 L100.493 93.9161 L99.981 95.5651 L99.538 97.1881 L99.167 98.7851 L98.871 100.358 L98.655 101.909 L98.519 103.437 L98.47 104.944 L98.51 106.431 L98.644 107.894 L98.875 109.335 L99.208 110.75 L99.644 112.136 L100.184 113.488 L100.828 114.804 L101.577 116.081 L102.431 117.318 L103.385 118.513 L104.44 119.665 L105.594 120.775 L106.843 121.843 L107.691 122.496 L108.55 123.098 L109.428 123.653 L110.324 124.162 L111.238 124.623 L112.166 125.037 L113.112 125.403 L114.073 125.723 L115.047 125.994 L116.035 126.219 L117.033 126.396 L118.042 126.53 L119.063 126.618 L120.091 126.662 L121.13 126.662 L122.177 126.622 L123.235 126.54 L124.3 126.418 L125.373 126.256 L126.455 126.058 L127.547 125.821 L128.648 125.549 L129.758 125.24 L130.807 124.919 L129.879 125.975 L128.446 127.469 L126.982 128.858 L125.489 130.144 L123.97 131.327 L122.425 132.404 L120.858 133.378 L119.268 134.248 L117.658 135.013 L116.028 135.674 L114.379 136.23 L112.712 136.682 L111.028 137.029 L109.326 137.271 L107.605 137.407 L105.868 137.435 L104.113 137.356 L102.34 137.167 L100.55 136.865 L98.743 136.451 L96.922 135.921 L95.085 135.273 L93.234 134.506 L91.37 133.617 L89.495 132.603 L87.612 131.465 L85.72 130.197 L83.831 128.808 L82.376 127.618 L81.077 126.416 L79.92 125.197 L78.898 123.964 L78.001 122.714 L77.222 121.449 L76.555 120.168 L75.992 118.869 L75.528 117.549 L75.157 116.207 L74.873 114.843 L74.675 113.453 L74.559 112.041 L74.519 110.603 L74.554 109.142 L74.659 107.661 L74.832 106.158 L75.069 104.638 L75.364 103.099 L75.712 101.549 L76.113 99.9851 L76.557 98.4111 L77.043 96.8301 L77.566 95.2441 L78.119 93.6531 L78.699 92.0611 L79.3 90.4701 L79.916 88.8801 L80.545 87.2941 L81.179 85.7121 L81.814 84.1381 L82.444 82.5721 L83.722 79.3711 L84.986 76.1621 L86.225 72.9512 L87.43 69.7451 L88.594 66.5517 L89.703 63.374 L90.752 60.2197 L91.729 57.0947 L92.623 54.0039 L93.427 50.9531 L94.13 47.9482 L94.721 44.9922 L95.191 42.0908 L95.527 39.248 L95.718 36.4687 L95.751 33.7568 L95.616 31.1162 L95.293 28.5527 L94.769 26.0732 L94.026 23.6894 L93.049 21.4131 L91.826 19.2617 L90.346 17.2558 L88.606 15.416 L86.61 13.7607 L84.359 12.2998 L81.858 11.042 L79.106 9.9883 L76.103 9.1416 L72.838 8.501 L69.305 8.0654 L65.403 7.833 L61.501 8.0654 L57.968 8.501 L54.705 9.1416 L51.701 9.9883 L48.95 11.042 L46.449 12.2998 L44.199 13.7597 L42.201 15.416 L40.461 17.2558 L38.982 19.2617 L37.758 21.4131 L36.781 23.6894 L36.038 26.0742 L35.514 28.5527 L35.192 31.1162 L35.055 33.7558 L35.089 36.4687 L35.281 39.248 L35.617 42.0908 L36.085 44.9922 L36.677 47.9482 L37.379 50.9531 L38.183 54.0039 L39.077 57.0947 L40.054 60.2197 L41.103 63.374 L42.213 66.5517 L43.376 69.7461 L44.582 72.9512 L45.822 76.1621 L47.085 79.3711 L48.363 82.5721 L48.993 84.1391 L49.628 85.7131 L50.262 87.2941 L50.89 88.8801 L51.507 90.4701 L52.109 92.0611 L52.688 93.6531 L53.241 95.2441 L53.764 96.8311 L54.249 98.4111 L54.695 99.9851 L55.095 101.549 L55.445 103.099 L55.739 104.637 L55.975 106.158 L56.147 107.661 L56.253 109.143 L56.288 110.603 L56.248 112.04 L56.132 113.454 L55.934 114.843 L55.652 116.207 L55.28 117.549 L54.815 118.869 L54.252 120.168 L53.585 121.449 L52.807 122.714 L51.909 123.963 L50.887 125.197 L49.73 126.416 L48.431 127.618 L46.974 128.808 L45.087 130.197 L43.196 131.465 L41.311 132.603 L39.437 133.617 L37.574 134.506 L35.722 135.273 L33.885 135.921 L32.063 136.451 L30.257 136.865 L28.467 137.167 L26.695 137.356 L24.94 137.435 L23.202 137.407 L21.482 137.271 L19.78 137.029 L18.094 136.682 L16.428 136.23 L14.78 135.674 L13.15 135.013 L11.539 134.248 L9.95 133.378 L8.382 132.404 L6.837 131.326 L5.318 130.144 L3.826 128.858 L2.362 127.469 L0.928 125.975 L0 124.919 L1.049 125.24 L2.159 125.549 L3.26 125.821 L4.351 126.058 L5.434 126.256 L6.507 126.418 L7.573 126.54 L8.629 126.622 L9.677 126.662 L10.716 126.662 L11.744 126.618 L12.765 126.53 L13.776 126.396 L14.774 126.219 L15.76 125.994 L16.734 125.723 L17.695 125.403 L18.64 125.037 L19.571 124.623 L20.483 124.162 L21.379 123.653 L22.257 123.098 L23.117 122.496 L23.963 121.843 L25.212 120.775 L26.367 119.665 L27.422 118.513 L28.376 117.317 L29.229 116.081 L29.979 114.804 L30.623 113.487 L31.163 112.136 L31.599 110.75 L31.932 109.335 L32.162 107.894 L32.296 106.431 L32.337 104.944 L32.287 103.436 L32.153 101.908 L31.935 100.358 L31.64 98.7861 L31.269 97.1881 L30.826 95.5651 L30.313 93.9151 L29.735 92.2361 L29.09 90.5261 L28.384 88.7831 L27.618 87.0081 L26.793 85.1951 L25.911 83.3481 L24.976 81.4611 L23.987 79.5341 L22.947 77.5671 L21.858 75.5581 L20.72 73.5068 L19.55 71.4346 L17.129 67.0117 L14.989 62.751 L13.115 58.6299 L11.504 54.6513 L10.158 50.8183 L9.07 47.1328 L8.239 43.5967 L7.659 40.2109 L7.33 36.9805 L7.244 33.9023 L7.397 30.9775 L7.783 28.2041 L8.398 25.5781 L9.238 23.0928 L10.303 20.7422 L11.592 18.5205 L13.111 16.4209 L14.863 14.4385 L16.854 12.5722 L19.089 10.8213 L21.573 9.1894 L24.307 7.6787 L27.295 6.292 L30.535 5.0351 L34.029 3.9111 L37.773 2.9228 L41.768 2.0742 L46.011 1.3662 L50.5 0.8037 L55.234 0.3867 L60.21 0.1181 L65.403 0 L70.596 0.1181 L75.573 0.3867 L80.307 0.8037 L84.796 1.3662 L89.039 2.0742 L93.034 2.9228 L96.779 3.9111 L100.272 5.0351 L103.513 6.292 L106.5 7.6787 L109.235 9.1894 L111.718 10.8213 L113.953 12.5722 L115.945 14.4385 L117.697 16.4209 L119.215 18.5205 L120.505 20.7431 L121.57 23.0928 L122.41 25.5781 L123.025 28.2041 L123.41 30.9775 L123.563 33.9023 L123.477 36.9805 L123.147 40.2109 L122.569 43.5967 L121.738 47.1328 L120.65 50.8183 L119.302 54.6513 L117.693 58.6299 L115.819 62.751 L113.678 67.0117 L111.256 71.4346 L110.086 73.5068 L108.95 75.5581 L107.86 77.5671 L106.82 79.5341 L105.831 81.4611 Z" transform="translate(541.653, 25.3799)" />
   <path style="fill:#161413; fill-rule:evenodd;stroke:none;" d="M19.3379 73.6214 C15.586 72.5914 14.2461 69.4514 14.003 65.3514 C14.003 43.5684 14.003 21.7842 14.003 0 C9.39746 1.4795 4.79199 2.959 0.187498 4.4385 C0.124998 26.3477 0.062498 48.2569 0 70.1674 C2.02735 77.7344 5.39258 80.1494 9.20706 80.3604 C14.7959 80.6694 17.6875 77.5934 19.3379 73.6214 Z" transform="translate(0.948242, 49.1826)" />
   <path style="fill:#161413; fill-rule:evenodd;stroke:none;" d="M13.1806 0 L0.0283 0 C0.0185 12.8144 0.0097 25.6289 0 38.4431 C0.4902 49.7891 6.4277 55.8961 18.9355 56.0631 C26.4511 56.1641 31.3134 54.0301 35.2207 50.8841 C35.2031 52.2821 35.1855 53.6811 35.1679 55.0791 L48.3301 55.1311 L48.2148 0.1201 L35.2402 0.1201 C35.2334 12.7763 35.2265 25.4316 35.2207 38.0881 C29.1621 48.5471 14.4814 46.4911 13.3525 38.1401 L13.1806 0 Z" transform="translate(30.8428, 71.5059)" />
   <path style="fill:#161413; fill-rule:evenodd;stroke:none;" d="M19.3364 73.6214 C15.5864 72.5914 14.2464 69.4514 14.0024 65.3514 C14.0024 43.5684 14.0024 21.7842 14.0024 0 C9.3974 1.4795 4.792 2.959 0.1865 4.4385 C0.125 26.3477 0.0625 48.2569 0 70.1674 C2.0263 77.7344 5.3916 80.1494 9.2074 80.3604 C14.7954 80.6694 17.6874 77.5934 19.3364 73.6214 Z" transform="translate(93.6846, 49.1826)" />
   <path style="fill:#161413; fill-rule:evenodd;stroke:none;" d="M13.181 0 L0.028 0 C0.018 12.8144 0.009 25.6289 0 38.4431 C0.49 49.7891 6.428 55.8961 18.935 56.0631 C26.451 56.1641 31.313 54.0301 35.22 50.8841 C35.202 52.2821 35.185 53.6811 35.168 55.0791 L48.33 55.1311 L48.215 0.1201 L35.24 0.1201 C35.233 12.7763 35.226 25.4316 35.22 38.0881 C29.162 48.5471 14.481 46.4911 13.352 38.1401 L13.181 0 Z" transform="translate(123.003, 71.5059)" />
   <path style="fill:#161413; fill-rule:evenodd;stroke:none;" d="M19.337 73.6214 C15.586 72.5914 14.246 69.4514 14.002 65.3514 C14.002 43.5684 14.002 21.7842 14.002 0 C9.396 1.4795 4.792 2.959 0.186 4.4385 C0.124 26.3477 0.061 48.2569 0 70.1674 C2.026 77.7344 5.391 80.1494 9.206 80.3604 C14.795 80.6694 17.687 77.5934 19.337 73.6214 Z" transform="translate(186.133, 49.1826)" />
   <path style="fill:#161413; fill-rule:evenodd;stroke:none;" d="M14.663 22.96 C17.712 7.3145 38.055 7.165 41.055 22.96 C32.257 22.96 23.46 22.96 14.663 22.96 Z M14.363 32.8563 C27.359 32.8563 40.355 32.8563 53.351 32.8563 C53.9 30.4583 54.432 27.917 54.4 25.0596 C54.252 11.4609 45.694 0.0322 27.859 0.0166 C7.86 0 0.472 15.2871 0.268 28.8076 C0 46.5303 8.964 56.5173 28.158 56.9993 C36.593 57.2113 43.567 55.5373 48.402 51.3003 C46.503 48.0023 44.604 44.7033 42.704 41.4043 C38.655 44.3023 34.207 45.9873 29.359 45.9023 C19.956 45.7373 14.962 41.2043 14.363 32.8563 Z" transform="translate(211.579, 70.5957)" />
   <path style="fill:#161413; fill-rule:evenodd;stroke:none;" d="M0.222 4.3974 L0 59.4957 L14.409 59.4957 C14.342 46.3547 14.276 33.2117 14.209 20.0712 C17.445 12.6308 30.118 13.6982 32.02 20.2714 L32.02 59.4957 L45.429 59.4957 C45.362 46.4207 45.295 33.3457 45.229 20.2714 C50.032 11.5986 62.639 13.4658 63.84 23.4726 L63.64 59.6967 L77.248 59.6967 C77.248 45.8867 77.248 32.0781 77.248 18.2695 C71.562 0 53.533 0.3154 42.027 9.4638 C34.421 1.5253 19.412 1.3261 12.608 8.8642 C11.674 7.3964 10.74 5.9287 9.806 4.4609 L0.222 4.3974 Z" transform="translate(274.947, 67.1143)" />
   <path style="fill:#161413; fill-rule:evenodd;stroke:none;" d="M0.222 7.8047 L0 62.903 L14.409 62.903 C14.342 49.762 14.276 36.619 14.209 23.4785 C17.445 16.0381 33.143 17.1055 35.044 23.6787 L35.044 62.903 L48.452 62.903 C48.386 49.828 48.319 36.903 48.252 23.8282 C47.652 9.6719 27.608 0 12.608 12.2715 C11.674 10.8037 10.74 9.336 9.806 7.8682 L0.222 7.8047 Z" transform="translate(423.987, 63.707)" />
   <path style="fill:#161413; fill-rule:evenodd;stroke:none;" d="M36.933 11.585 C54.924 11.668 52.723 46.3014 36.792 46.3114 C20.862 46.3224 18.942 11.502 36.933 11.585 Z M36.977 0.2862 C71.9 0 73.488 57.5934 36.744 57.6104 C0 57.6284 2.055 0.5723 36.977 0.2862 Z" transform="translate(351.237, 70.1406)" />
   <path style="fill:#161413; fill-rule:evenodd;stroke:none;" d="M19.337 73.6214 C15.586 72.5914 14.246 69.4514 14.002 65.3514 C14.002 43.5684 14.002 21.7842 14.002 0 C9.397 1.4795 4.792 2.959 0.186 4.4385 C0.124 26.3477 0.061 48.2569 0 70.1674 C2.026 77.7344 5.391 80.1494 9.206 80.3604 C14.795 80.6694 17.687 77.5934 19.337 73.6214 Z" transform="translate(897.925, 49.1826)" />
   <path style="fill:#161413; fill-rule:evenodd;stroke:none;" d="M14.663 22.96 C17.712 7.3145 38.055 7.165 41.055 22.96 C32.257 22.96 23.46 22.96 14.663 22.96 Z M14.363 32.8563 C27.358 32.8563 40.355 32.8563 53.351 32.8563 C53.9 30.4583 54.432 27.917 54.4 25.0596 C54.252 11.4609 45.694 0.0322 27.858 0.0166 C7.86 0 0.472 15.2871 0.268 28.8076 C0 46.5303 8.964 56.5173 28.159 56.9993 C36.593 57.2113 43.567 55.5373 48.402 51.3003 C46.503 48.0023 44.604 44.7033 42.704 41.4043 C38.655 44.3023 34.207 45.9873 29.358 45.9023 C19.956 45.7373 14.962 41.2043 14.363 32.8563 Z" transform="translate(923.371, 70.5957)" />
   <path style="fill:#161413; fill-rule:evenodd;stroke:none;" d="M8.006 13.9287 C7.077 10.7148 7.006 7.2861 6.077 4.0712 C8.72 2.1425 13.934 0.7851 21.721 0 C37.722 0.4287 45.437 7.1425 45.866 20.1435 C45.866 27.1445 45.866 34.1441 45.866 41.1451 C45.937 47.5031 47.579 51.2881 51.08 52.5031 C47.149 60.5141 36.648 57.7961 34.364 51.4311 C30.972 55.8601 26.234 57.0991 19.363 57.0031 C7.857 56.8431 0.157 53.2791 0.076 40.5021 C0 28.5517 5.872 18.4667 32.435 20.3583 C31.973 12.3916 24.544 8.748 8.006 13.9287 Z M27.632 30.3681 C18.54 30.1931 13.458 33.3721 13.444 39.5661 C13.433 45.0591 17.264 46.9241 22.176 46.8941 C30.283 46.8461 33.816 41.3851 32.777 30.8361 C31.061 30.6801 29.353 30.4011 27.632 30.3681 Z" transform="translate(733.713, 70.2979)" />
   <path style="fill:#161413; fill-rule:evenodd;stroke:none;" d="M19.42 0 L5.999 5.2099 L6.158 15.9463 L0 15.9463 L0 26.8408 L6.027 26.79 C6.08 37.3222 6.135 47.8549 6.189 58.3859 C6.96 65.9399 9.819 71.5869 23.94 72.0119 C27.981 72.1339 32.023 71.8239 36.066 70.8869 C36.066 66.8449 36.066 62.8029 36.066 58.7609 C33.752 59.9489 31.131 60.9369 27.815 61.0119 C22.816 61.1239 20.148 58.5109 19.815 53.5109 L19.94 27.1338 L34.19 27.1338 L34.315 16.1338 L19.565 16.0088 L19.42 0 Z" transform="translate(788.944, 55.5391)" />
   <path style="fill:#161413; fill-rule:evenodd;stroke:none;" d="M0.222 2.3447 L0 77.8912 L14.409 77.8912 C14.342 64.7502 14.275 51.6072 14.209 38.4667 C17.444 31.0263 33.143 32.0937 35.044 38.6669 L35.044 77.8912 L48.453 77.8912 C48.385 64.8162 48.319 51.8912 48.253 38.8164 C47.652 24.6601 28.104 15.5898 13.904 26.3955 L13.713 0 L0.222 2.3447 Z" transform="translate(834.387, 48.7188)" />
   <path style="fill:#161413; fill-rule:evenodd;stroke:none;" d="M19.424 0 L6 5.2099 L6.158 15.9463 L0 15.9463 L0 26.8408 L6.027 26.79 C6.081 37.3222 6.134 47.8549 6.188 58.3859 C6.96 65.9399 9.818 71.5869 23.944 72.0119 C27.984 72.1339 32.024 71.8239 36.064 70.8869 C36.064 66.8449 36.064 62.8029 36.064 58.7609 C33.754 59.9489 31.134 60.9369 27.814 61.0119 C22.814 61.1239 20.144 58.5109 19.814 53.5109 L19.944 27.1338 L34.194 27.1338 L34.314 16.1338 L19.564 16.0088 L19.424 0 Z" transform="translate(983.056, 55.5391)" />
   <path style="fill:#161413; fill-rule:evenodd;stroke:none;" d="M8 13.9287 C7.07 10.7148 7 7.2861 6.07 4.0712 C8.71 2.1425 13.93 0.7851 21.72 0 C37.72 0.4287 45.43 7.1425 45.86 20.1435 C45.86 27.1445 45.86 34.1441 45.86 41.1451 C45.93 47.5031 47.57 51.2881 51.07 52.5031 C47.14 60.5141 36.64 57.7961 34.36 51.4311 C30.97 55.8601 26.23 57.0991 19.36 57.0031 C7.85 56.8431 0.15 53.2791 0.07 40.5021 C0 28.5517 5.87 18.4667 32.43 20.3583 C31.97 12.3916 24.54 8.748 8 13.9287 Z M27.63 30.3681 C18.53 30.1931 13.45 33.3721 13.44 39.5661 C13.43 45.0591 17.26 46.9241 22.17 46.8941 C30.28 46.8461 33.81 41.3851 32.77 30.8361 C31.06 30.6801 29.35 30.4011 27.63 30.3681 Z" transform="translate(1109.27, 70.2979)" />
   <path style="fill:#161413; fill-rule:evenodd;stroke:none;" d="M14.36 33.1483 C13.11 12.6055 29.11 6.457 42.1 15.7539 L47.2 6.0068 C46.9 5.7764 40.64 0.5068 27.86 0.3086 C7.86 0 0.47 15.5791 0.26 29.0996 C0 46.8223 8.96 56.8093 28.16 57.2913 C36.59 57.5033 43.56 55.8293 48.4 51.5923 C46.5 48.2943 44.6 44.9953 42.7 41.6963 C38.65 44.5943 34.2 46.2793 29.36 46.1943 C19.95 46.0293 14.96 41.4963 14.36 33.1483 Z" transform="translate(1055.71, 70.3037)" />
   <path style="fill:#161413; fill-rule:evenodd;stroke:none;" d="M0 0 L20.15 0.0927 L20.33 55.1234 L7.12 55.1234 L7.02 11.1181 L0 11.1181 L0 0 Z" transform="translate(1025.05, 71.5186)" />
   <path style="fill:#161413; fill-rule:evenodd;stroke:none;" d="M7.68 0 C11.92 0 15.35 3.4366 15.35 7.6739 C15.35 11.9121 11.92 15.3487 7.68 15.3487 C3.44 15.3487 0 11.9121 0 7.6739 C0 3.4366 3.44 0 7.68 0 Z" transform="translate(1031.2, 50.457)" />
  </g>
 </g>
</svg>
