<?xml version="1.0" encoding="UTF-8" standalone="no"?>
<svg
   xmlns:dc="http://purl.org/dc/elements/1.1/"
   xmlns:cc="http://creativecommons.org/ns#"
   xmlns:rdf="http://www.w3.org/1999/02/22-rdf-syntax-ns#"
   xmlns:svg="http://www.w3.org/2000/svg"
   xmlns="http://www.w3.org/2000/svg"
   version="1.1"
   width="100"
   height="100"
   id="svg2"
   xml:space="preserve"><rect
     style="fill:#0ca948;stroke:none"
     id="green_rect"
     y="0"
     x="0"
     height="100"
     width="100" /><path
     style="fill:#ffffff;fill-rule:nonzero;stroke:none"
     d="m 78.379874,30.138322 c -6.617796,0 -10.679259,4.45069 -10.679259,10.179633 l 0,18.354154 c 0,5.727534 4.061463,10.175231 10.679259,10.175231 6.561451,0 10.010157,-4.115081 10.010157,-9.677805 l 0,-4.501048 -6.17381,0 0,4.446023 c 0,2.169307 -1.22314,3.671271 -3.726296,3.671271 -2.501746,0 -3.77912,-1.500995 -3.77912,-3.559019 l 0,-19.46566 c 0,-2.058025 1.277374,-3.55902 3.77912,-3.55902 2.503156,0 3.726296,1.501964 3.726296,3.67127 l 0,4.448225 6.17381,0 0,-4.505451 c 0,-5.561315 -3.448706,-9.677804 -10.010157,-9.677804 z m -65.878183,0.83638 0,37.038459 6.171609,0 0,-26.861026 5.174555,26.861026 5.894283,0 5.172354,-26.861026 0,26.861026 6.173811,0 0,-37.038459 -9.288228,0 -5.005078,25.637269 -5.005078,-25.637269 z m 33.68193,0 0,37.038459 17.685049,0 0,-6.173811 -10.787109,0 0,-9.704216 9.006499,0 0,-6.173811 -9.006499,0 0,-8.815011 10.787109,0 0,-6.17161 z"
     id="MEC" /></svg>
